<svg xmlns="http://www.w3.org/2000/svg" x="0px" y="0px" width="100" height="100" viewBox="0 0 64 64">
<path fill="#37d0ee" d="M45.009,55H20c-2.761,0-5-2.239-5-5V12c0-2.761,2.239-5,5-5h16.423c1.65,0,3.233,0.655,4.4,1.822	l7.361,7.355c1.169,1.168,1.825,2.752,1.825,4.404V50C50.009,52.761,47.771,55,45.009,55z"></path><ellipse cx="32.48" cy="61" opacity=".3" rx="19" ry="3"></ellipse><path fill="#fff" d="M15,11.947V29c2.762,0,5-2.238,5-5l0-11.525c0-0.313,0.191-0.607,0.491-0.7 C22.524,11.139,24,9.243,24,7h-4.053C17.215,7,15,9.215,15,11.947z" opacity=".3"></path><path d="M50.009,50.075V32c-2.762,0-5,2.238-5,5v12c0,0.552-0.448,1-1,1h-9c-2.762,0-5,2.238-5,5h15.075 C47.804,55,50.009,52.795,50.009,50.075z" opacity=".15"></path><line x1="18.5" x2="18.5" y1="12.5" y2="19.5" fill="none" stroke="#fff" stroke-linecap="round" stroke-linejoin="round" stroke-miterlimit="10" stroke-width="3"></line><path fill="#008aa9" d="M48.258,16.258l-7.451-7.451C40.023,8.029,39.051,7.486,38,7.21v9.223	c0,1.419,1.15,2.569,2.569,2.569L49.798,19C49.529,17.977,49.004,17.031,48.258,16.258z"></path><path fill="#fff" d="M33.5,44h-10c-0.828,0-1.5-0.672-1.5-1.5l0,0c0-0.828,0.672-1.5,1.5-1.5h10	c0.828,0,1.5,0.672,1.5,1.5l0,0C35,43.328,34.328,44,33.5,44z"></path><path fill="#fff" d="M41.5,37h-18c-0.828,0-1.5-0.672-1.5-1.5l0,0c0-0.828,0.672-1.5,1.5-1.5h18	c0.828,0,1.5,0.672,1.5,1.5l0,0C43,36.328,42.328,37,41.5,37z"></path><path fill="#fff" d="M41.5,30h-18c-0.828,0-1.5-0.672-1.5-1.5v0c0-0.828,0.672-1.5,1.5-1.5h18c0.828,0,1.5,0.672,1.5,1.5	v0C43,29.328,42.328,30,41.5,30z"></path>
</svg>